PathFileType	3	(X/Y/Z)	F:\ViconData\AntennenMessung\Messung1\Session1\ID06.trc
DataRate	CameraRate	NumFrames	NumMarkers	Units	OrigDataRate	OrigDataStartFrame	OrigNumFrames
120.0	120.0	5	70	mm	120.0	830	948	
Frame#	Time	Ashort			Along			Atop			A4			Bshort			Blong			Btop			B4			Cshort			Clong			Ctop			C4			Dshort			Dlong			Dtop			D4			Eshort			Elong			Etop			E4			Fshort			Flong			Ftop			F4			Gshort			Glong			Gtop			G4			Hshort			Hlong			Htop			H4			I1			I2			I3			I4			I5			WandAshort			WandAlong			WandAtop			WandA4			WandA15			WandBshort			WandB4			WandB5			WandBtop			WandBlong			WandCshort			WandClong			WandCtop			WandC4			WandC5			Acenter			Aantenna			Bcenter			Bantenna			Ccenter			Cantenna			Dcenter			Dantenna			Ecenter			Eantenna			Fcenter			Fantenna			Gcenter			Gantenna			Hcenter			Hantenna			Icenter			Iantenna			
		X1	Y1	Z1	X2	Y2	Z2	X3	Y3	Z3	X4	Y4	Z4	X5	Y5	Z5	X6	Y6	Z6	X7	Y7	Z7	X8	Y8	Z8	X9	Y9	Z9	X10	Y10	Z10	X11	Y11	Z11	X12	Y12	Z12	X13	Y13	Z13	X14	Y14	Z14	X15	Y15	Z15	X16	Y16	Z16	X17	Y17	Z17	X18	Y18	Z18	X19	Y19	Z19	X20	Y20	Z20	X21	Y21	Z21	X22	Y22	Z22	X23	Y23	Z23	X24	Y24	Z24	X25	Y25	Z25	X26	Y26	Z26	X27	Y27	Z27	X28	Y28	Z28	X29	Y29	Z29	X30	Y30	Z30	X31	Y31	Z31	X32	Y32	Z32	X33	Y33	Z33	X34	Y34	Z34	X35	Y35	Z35	X36	Y36	Z36	X37	Y37	Z37	X38	Y38	Z38	X39	Y39	Z39	X40	Y40	Z40	X41	Y41	Z41	X42	Y42	Z42	X43	Y43	Z43	X44	Y44	Z44	X45	Y45	Z45	X46	Y46	Z46	X47	Y47	Z47	X48	Y48	Z48	X49	Y49	Z49	X50	Y50	Z50	X51	Y51	Z51	X52	Y52	Z52	X53	Y53	Z53	X54	Y54	Z54	X55	Y55	Z55	X56	Y56	Z56	X57	Y57	Z57	X58	Y58	Z58	X59	Y59	Z59	X60	Y60	Z60	X61	Y61	Z61	X62	Y62	Z62	X63	Y63	Z63	X64	Y64	Z64	X65	Y65	Z65	X66	Y66	Z66	X67	Y67	Z67	X68	Y68	Z68	X69	Y69	Z69	X70	Y70	Z70	
830	6.9083333	-1038.2351	214.59688	-1644.2004	-1109.3494	203.57159	-1599.5282	-1063.6685	173.00865	-1625.634	-1054.0986	262.15265	-1634.9778	-1352.772	235.72449	1003.9612	-1281.3553	227.18275	1052.5055	-1322.9991	194.07758	1020.8785	-1284.6469	287.7709	1052.8949	814.00696	187.46176	1209.6039	892.5246	178.37543	1179.2434	844.44885	145.48289	1198.2189	860.84045	292.42264	1167.4114	1115.7803	209.57089	-1401.6373	1056.293	194.10123	-1460.304	1095.1238	162.42737	-1423.8948	1069.875	238.7486	-1425.9392	-1204.4796	1685.9744	-1563.3126	-1129.1173	1688.2476	-1606.0625	-1173.0813	1724.4636	-1582.0057	-1133.7411	1581.0685	-1603.7079	-1239.6741	1699.1558	1119.4333	-1309.3032	1698.6578	1071.8696	-1270.4456	1736.2526	1096.8828	-1245.0549	1593.7236	1106.4165	988.81799	1664.2455	1162.3523	957.58435	1700.3334	1183.8793	922.87012	1662.0958	1215.0421	939.79944	1659.3871	1160.0055	999.26038	1668.4874	-1579.4662	1058.9904	1670.1428	-1518.7096	1025.1088	1708.019	-1551.181	1059.3331	1672.1875	-1585.6404	-232.36128	1722.6188	477.36398	-148.28192	1725.3564	477.62695	-195.64102	1761.0629	478.38782	-195.66801	1722.6807	509.02139	-195.68427	1725.8744	430.73932																																														-1068.9292	209.83817	-1624.9189	-1074.443	248.43916	-1624.1696	-1321.4423	231.97731	1025.257	-1319.8522	270.68744	1029.7291	848.1474	183.51089	1196.4028	851.9184	222.28398	1194.5513	1088.8878	202.57751	-1428.1587	1082.9349	240.905	-1432.229	-1171.8468	1686.9585	-1581.8239	-1170.5638	1647.9801	-1581.6349	-1270.9764	1698.9319	1098.0505	-1271.5309	1659.955	1099.2704	953.30951	1705.2723	1186.8254	973.1311	1733.3881	1168.4512	1026.6329	1669.246	-1551.623	1028.1648	1630.2786	-1552.0673	-194.4267	1723.854	477.48257	-193.15498	1684.8862	476.53458
831	6.9166667	-1038.2166	214.5289	-1644.1815	-1109.3369	203.65392	-1599.5776	-1063.6022	173.03467	-1625.7152	-1054.1279	262.15518	-1634.9435	-1352.6906	235.57036	1003.8564	-1281.3203	227.19977	1052.3712	-1322.9324	194.12378	1020.8552	-1284.507	287.79764	1052.8419	813.99164	187.44128	1209.5859	892.48901	178.1868	1179.303	844.48041	145.25067	1198.4287	860.91071	292.3988	1167.401	1115.7677	209.55643	-1401.6171	1056.3452	194.10558	-1460.2488	1095.0638	162.23997	-1423.8888	1069.8661	238.69209	-1425.9532	-1204.4624	1685.9812	-1563.3275	-1129.1066	1688.3474	-1606.3107	-1173.0922	1724.4767	-1582.0128	-1133.7365	1581.028	-1603.6682	-1239.6759	1699.1501	1119.4272	-1309.2081	1698.506	1071.8257	-1270.4803	1736.2871	1096.8942	-1245.0894	1593.625	1106.5056	988.83246	1664.2467	1162.36	957.50751	1700.3344	1183.8772	922.20569	1662.272	1214.9358	939.75299	1659.4031	1160.0179	999.24866	1668.4635	-1579.4576	1058.8396	1669.9493	-1518.7495	1025.1187	1708.0173	-1551.1769	1059.3391	1672.1885	-1585.6487	-232.51733	1722.7604	477.33981	-148.27585	1725.3667	477.59781	-195.65533	1761.0712	478.39017	-195.72981	1722.7104	509.01608	-195.69237	1725.8839	430.74481																																														-1068.7887	209.85413	-1625.0078	-1074.2274	248.46588	-1624.266	-1321.4036	231.90086	1025.1241	-1319.8365	270.62289	1029.4999	848.19312	183.40907	1196.3915	851.9646	222.17108	1194.322	1088.8309	202.55243	-1428.1952	1082.9049	240.88147	-1432.2898	-1171.8635	1687.0048	-1581.9219	-1170.5857	1648.0258	-1581.8275	-1270.9175	1698.8606	1098.0392	-1271.3729	1659.8815	1099.2317	952.93921	1705.597	1187.0151	972.91278	1733.7538	1168.8698	1026.557	1669.1443	-1551.6373	1027.9988	1630.1737	-1552.0988	-194.50356	1723.9363	477.45621	-193.29489	1684.9674	476.47614
832	6.925	-1038.2423	214.53728	-1644.2098	-1109.3461	203.72546	-1599.5894	-1063.5547	173.05319	-1625.7158	-1054.1417	262.14746	-1634.9659	-1352.9485	235.22229	1004.0022	-1281.3204	227.19987	1052.4542	-1322.9546	194.10683	1020.8949	-1284.5674	287.7326	1052.8718	813.85919	187.51028	1209.5393	892.46838	178.21478	1179.3019	844.43054	145.5014	1198.2809	860.71039	292.07544	1167.4321	1115.7686	209.55923	-1401.6362	1056.1848	193.97076	-1460.2369	1095.0411	162.31871	-1423.8898	1069.8843	238.69749	-1425.9263	-1204.4542	1685.9652	-1563.333	-1129.0822	1688.2799	-1606.1086	-1173.0876	1724.4478	-1581.9912	-1133.7338	1581.0581	-1603.7079	-1239.6814	1699.1665	1119.4253	-1309.3041	1698.6552	1071.876	-1270.4695	1736.2826	1096.8918	-1244.9344	1593.8434	1106.3667	988.84875	1664.2401	1162.3608	957.50427	1700.3431	1183.9064	922.67981	1662.1183	1215.0809	939.8327	1659.3724	1160.0044	999.25189	1668.4536	-1579.4596	1058.9777	1670.1377	-1518.7155	1025.1134	1708.0214	-1551.186	1059.3491	1672.2043	-1585.651	-232.51781	1722.7485	477.3418	-148.2944	1725.3821	477.59888	-195.62753	1761.0632	478.39035	-195.64157	1722.6677	509.07547	-195.70184	1725.8713	430.75797																																														-1068.749	209.89848	-1625.0656	-1074.1926	248.5107	-1624.384	-1321.6409	231.71581	1025.1798	-1320.2882	270.44177	1029.5923	848.17194	183.4528	1196.3406	851.99323	222.21452	1194.3589	1088.7644	202.49434	-1428.1947	1082.7777	240.81273	-1432.3009	-1171.8491	1686.9664	-1581.8372	-1170.5613	1647.9879	-1581.6772	-1270.9839	1698.9365	1098.0469	-1271.5209	1659.9589	1099.2524	953.13666	1705.3737	1186.9083	972.95477	1733.5195	1168.5767	1026.6364	1669.2257	-1551.6079	1028.1661	1630.2579	-1552.0319	-194.46385	1723.9384	477.45792	-193.24237	1684.9697	476.47922
833	6.9333333	-1038.2205	214.56679	-1644.1725	-1109.3202	203.66803	-1599.5653	-1063.5853	173.08157	-1625.7142	-1054.1434	262.19006	-1634.9584	-1352.9583	235.25891	1004.0374	-1281.4036	227.19061	1052.4384	-1322.8717	194.20877	1020.8046	-1284.642	287.78271	1052.9016	813.98889	187.52635	1209.5472	892.54248	178.32567	1179.2545	844.36481	145.37315	1198.3311	860.88123	292.15094	1167.4889	1115.7795	209.55104	-1401.6282	1056.291	194.04802	-1460.2668	1095.0547	162.21417	-1423.8834	1069.8628	238.66327	-1425.9482	-1204.4619	1685.9731	-1563.3112	-1129.1067	1688.2797	-1606.1083	-1173.08	1724.4709	-1581.9974	-1133.7213	1581.0507	-1603.6931	-1239.6941	1699.1831	1119.4404	-1309.1334	1698.3318	1071.751	-1270.4738	1736.2692	1096.8953	-1245.7438	1592.8519	1110.6548	988.89978	1664.3002	1162.3573	957.45288	1700.361	1183.7896	922.69977	1662.0919	1214.9785	939.7843	1659.411	1159.9882	999.25732	1668.4854	-1579.4703	1058.8473	1669.9434	-1518.7455	1025.1102	1708.0034	-1551.1866	1059.348	1672.1975	-1585.641	-232.51814	1722.7554	477.35608	-148.28185	1725.365	477.62421	-195.60783	1761.0446	478.28391	-195.64882	1722.6799	509.02933	-195.67892	1725.8668	430.74335																																														-1068.7787	209.88254	-1625.0005	-1074.2273	248.4928	-1624.2517	-1321.6323	231.72668	1025.2267	-1320.3538	270.43774	1029.7894	848.08856	183.53236	1196.3973	851.87158	222.29871	1194.433	1088.8135	202.52353	-1428.2089	1082.8793	240.84943	-1432.3214	-1171.8414	1686.9716	-1581.8375	-1170.5541	1647.9932	-1581.6714	-1270.8179	1698.8015	1098.0653	-1271.1761	1659.8221	1099.2825	953.09027	1705.3636	1186.7628	972.86572	1733.521	1168.4027	1026.5455	1669.153	-1551.6625	1027.9852	1630.1825	-1552.1396	-194.45561	1723.9346	477.4772	-193.24557	1684.9625	476.63007
834	6.9416667	-1038.2455	214.55318	-1644.1959	-1109.3339	203.67337	-1599.5787	-1063.6154	173.07632	-1625.7256	-1054.1165	262.18793	-1634.9711	-1352.6854	235.79549	1003.9866	-1281.3827	227.22755	1052.4435	-1322.9442	194.11421	1020.874	-1284.6482	287.73328	1052.9343	813.9483	187.47154	1209.6167	892.46716	178.28809	1179.2932	844.44598	145.41245	1198.3973	860.75751	292.28128	1167.3217	1115.7655	209.51331	-1401.6204	1056.2905	194.01187	-1460.2339	1095.0327	162.30333	-1423.8936	1069.8344	238.6124	-1425.9207	-1204.4532	1685.9731	-1563.3224	-1129.1362	1688.3993	-1606.6449	-1173.0835	1724.4725	-1581.9913	-1134.0052	1581.0504	-1603.7839	-1239.6925	1699.1843	1119.4353	-1309.3198	1698.681	1071.8773	-1270.4431	1736.248	1096.8801	-1244.9568	1593.8744	1106.3876	988.87531	1664.2795	1162.3593	957.40515	1700.3966	1183.7905	922.12433	1662.2142	1214.9583	939.76105	1659.3914	1160.0042	999.25763	1668.4675	-1579.4543	1058.9729	1670.1224	-1518.7098	1025.1184	1708.0074	-1551.1794	1059.3611	1672.2021	-1585.6598	-232.50507	1722.7324	477.33539	-148.271	1725.3707	477.60284	-195.58989	1761.0043	478.25403	-195.659	1722.6741	509.03363	-195.67166	1725.8716	430.7374																																														-1068.8027	209.87648	-1625.0172	-1074.2455	248.48767	-1624.2738	-1321.3728	232.03287	1025.2664	-1319.7688	270.74103	1029.7504	848.13202	183.47345	1196.415	851.88641	222.23978	1194.3961	1088.7994	202.48497	-1428.1956	1082.8544	240.81012	-1432.2991	-1171.907	1687.0215	-1582.0431	-1170.6823	1648.0408	-1582.0969	-1270.9818	1698.958	1098.0635	-1271.545	1659.9817	1099.3005	952.84332	1705.632	1186.8972	972.76593	1733.7903	1168.6984	1026.6306	1669.2261	-1551.6094	1028.1501	1630.2579	-1552.0416	-194.42592	1723.925	477.45627	-193.20258	1684.9532	476.6178
